# xmcd CD database file
#
# Track frame offsets:
#        150
#        22367
#        44332
#        63355
#        80445
#        99590
#        116327
#        133855
#        152517
#        169447
#        189200
#
# Disc length: 2995 seconds
#
# Revision: 0
# Processed by: cddbd v1.5.2PL0 Copyright (c) Steve Scherf et al.
# Submitted via: CUERipper 2.1.5
#
DISCID=900bb10b
DTITLE=Colin James - Traveler
DYEAR=2003
DGENRE=
TTITLE0=I'm Losing You
TTITLE1=Make a Mistake
TTITLE2=Sky Diving
TTITLE3=I Know What Love Is
TTITLE4=Black-Eyed Dog
TTITLE5=You and Whose Army
TTITLE6=Sending a Message
TTITLE7=Know How to Love You
TTITLE8=She Can&apos;t Do No Wrong
TTITLE9=Anywhere Is Home
TTITLE10=Rainy Day, Dream Away
EXTD=
EXTT0=
EXTT1=
EXTT2=
EXTT3=
EXTT4=
EXTT5=
EXTT6=
EXTT7=
EXTT8=
EXTT9=
EXTT10=
PLAYORDER=
